<svg width="82.474121" height="31.340088" viewBox="0 0 82.4741 31.3401" fill="none" xmlns="http://www.w3.org/2000/svg" xmlns:xlink="http://www.w3.org/1999/xlink">
	<desc>
			Created with Pixso.
	</desc>
	<defs/>
	<rect id="logo" rx="-0.500000" width="79.000000" height="23.742268" transform="translate(2.974121 7.097900)" fill="#FFFFFF" fill-opacity="0"/>
	<path id="Vector" d="M54.09 7.89C53.73 4.57 51.66 1.76 48.67 0.58C45.68 -0.6 42.27 0.03 39.86 2.15C38.41 0.88 36.53 0.12 34.58 0.03C32.24 -0.08 30.04 0.71 28.37 2.28C26.81 3.74 25.85 5.75 25.66 7.92C25.56 9.01 25.68 10.1 26.03 11.26L11.43 11.22C11.04 11.22 10.72 11.41 10.53 11.72C10.32 12.07 10.32 12.51 10.53 12.86C10.72 13.18 11.04 13.36 11.43 13.36L27.58 13.4C27.95 13.4 28.25 13.23 28.44 12.96C28.65 12.64 28.69 12.2 28.52 11.83C27.26 8.97 27.73 5.95 29.74 3.96C30.98 2.74 32.62 2.11 34.33 2.17C36.14 2.23 37.87 3.06 39.07 4.42C39.26 4.62 39.54 4.75 39.86 4.75C40.18 4.75 40.47 4.64 40.65 4.42C42.52 2.32 45.32 1.58 47.84 2.54C50.06 3.39 51.66 5.51 51.92 7.94C52 8.64 52.64 8.99 53.22 8.94C53.79 8.86 54.14 8.44 54.09 7.89Z" fill="#2B3541" fill-opacity="1.000000" fill-rule="nonzero"/>
	<path id="Vector" d="M7.75 21.57L5.15 21.57C4.83 21.57 4.59 21.31 4.59 21.01L4.59 3.46C4.59 3.15 4.85 2.91 5.15 2.91L7.77 2.91C8.09 2.91 8.33 3.17 8.33 3.46L8.33 21.01C8.31 21.31 8.07 21.57 7.75 21.57Z" fill="#2B3541" fill-opacity="1.000000" fill-rule="nonzero"/>
	<path id="Vector" d="M3.19 19.37L0.56 19.37C0.26 19.37 0 19.13 0 18.82L0 5.6C0 5.3 0.24 5.05 0.56 5.05L3.19 5.05C3.49 5.05 3.76 5.29 3.76 5.6L3.76 18.82C3.76 19.13 3.51 19.37 3.19 19.37Z" fill="#2B3541" fill-opacity="1.000000" fill-rule="nonzero"/>
	<path id="Vector" d="M12.3 23.47L9.7 23.47C9.38 23.47 9.12 23.21 9.12 22.89L9.12 1.54C9.12 1.23 9.38 0.97 9.7 0.97L12.3 0.97C12.62 0.97 12.88 1.23 12.88 1.54L12.88 22.91C12.88 23.23 12.62 23.47 12.3 23.47Z" fill="#2B3541" fill-opacity="1.000000" fill-rule="nonzero"/>
	<path id="Vector" d="M68.42 11.72C68.24 11.41 67.92 11.22 67.52 11.22L52.22 11.26C51.89 11.26 51.43 11.44 51.26 11.81C49.53 15.57 46.03 18.39 43.53 20.2C42.42 20.99 41.31 21.73 40.2 22.4L40.09 22.45C39.92 22.54 39.92 22.54 39.77 22.49C39.34 22.32 38.9 22.03 38.49 21.75C38.32 21.64 38.15 21.53 38 21.42C36.87 20.7 35.89 20.02 34.99 19.34C33.2 17.95 31.74 16.57 30.49 15.06C30.14 14.62 29.57 14.56 29.12 14.91C28.67 15.26 28.46 15.96 28.91 16.51C30.12 17.97 31.55 19.35 33.3 20.72C34.31 21.51 35.39 22.29 36.5 23C37.06 23.37 37.66 23.74 38.28 24.11L38.41 24.18C38.85 24.44 39.34 24.74 39.92 24.74C40.03 24.74 40.16 24.72 40.3 24.7C40.77 24.59 41.22 24.29 41.63 24.04C41.74 23.96 41.84 23.89 41.95 23.83C42.61 23.43 43.27 22.99 43.93 22.54C45.77 21.27 47.33 20.02 48.73 18.71C50.62 16.9 52 15.15 52.92 13.4L67.52 13.36C67.92 13.36 68.24 13.18 68.42 12.86C68.63 12.51 68.63 12.07 68.42 11.72Z" fill="#FBF138" fill-opacity="1.000000" fill-rule="nonzero"/>
	<path id="Vector" d="M72.24 21.57L74.86 21.57C75.18 21.57 75.42 21.31 75.42 21.01L75.42 3.46C75.42 3.15 75.16 2.91 74.86 2.91L72.24 2.91C71.92 2.91 71.68 3.17 71.68 3.46L71.68 21.01C71.68 21.31 71.92 21.57 72.24 21.57Z" fill="#FBF138" fill-opacity="1.000000" fill-rule="nonzero"/>
	<path id="Vector" d="M76.8 19.37L79.43 19.37C79.73 19.37 79.99 19.13 79.99 18.82L79.99 5.6C79.99 5.3 79.75 5.05 79.43 5.05L76.8 5.05C76.5 5.05 76.23 5.29 76.23 5.6L76.23 18.82C76.23 19.13 76.48 19.37 76.8 19.37Z" fill="#FBF138" fill-opacity="1.000000" fill-rule="nonzero"/>
	<path id="Vector" d="M67.69 23.47L70.29 23.47C70.61 23.47 70.87 23.21 70.87 22.89L70.87 1.54C70.87 1.23 70.61 0.97 70.29 0.97L67.69 0.97C67.37 0.97 67.11 1.23 67.11 1.54L67.11 22.91C67.11 23.23 67.37 23.47 67.69 23.47Z" fill="#FBF138" fill-opacity="1.000000" fill-rule="nonzero"/>
</svg>
