<svg width="32" height="32" viewBox="0 0 32 32" fill="none" xmlns="http://www.w3.org/2000/svg">
<g clip-path="url(#clip0_2721_2)">
<rect width="32" height="32" fill="#FBF138"/>
<path d="M18.8535 9.83775C17.6665 8.87945 16.0987 8.63568 14.7604 9.21123C13.422 9.78677 12.5353 11.0787 12.4502 12.5344C11.5756 12.5866 10.7295 12.9442 10.0738 13.5403C9.29171 14.2508 8.8438 15.2112 8.81468 16.2534C8.78593 17.2237 9.12854 18.1802 9.77154 18.9436C10.093 19.3252 10.4807 19.6407 10.9705 19.9018L6.28828 24.5602C6.16189 24.6866 6.11917 24.8485 6.16029 25.01C6.20731 25.1894 6.35033 25.3324 6.52976 25.3795C6.69125 25.4206 6.85316 25.3779 6.97954 25.2515L12.1553 20.0996C12.2757 19.9792 12.3183 19.8293 12.2891 19.6797C12.254 19.5122 12.123 19.3571 11.9497 19.2921C10.6228 18.7717 9.79593 17.6439 9.79632 16.3563C9.80023 15.5658 10.1212 14.8396 10.6868 14.3098C11.2824 13.7499 12.1043 13.4644 12.9305 13.5202C13.0562 13.5255 13.1882 13.477 13.2905 13.3746C13.3928 13.2723 13.4473 13.1463 13.436 13.0146C13.3525 11.7394 14.0109 10.6043 15.1272 10.1077C16.1115 9.67166 17.3084 9.8454 18.1793 10.5477C18.4298 10.7501 18.7476 10.6587 18.9163 10.4543C19.0731 10.2499 19.0503 9.99847 18.8535 9.83775Z" fill="#2A2A2A"/>
<path d="M8.45147 29.0829L7.62093 29.9135C7.51861 30.0158 7.35694 30.0106 7.2616 29.9153L1.58844 24.2421C1.48714 24.1408 1.49393 23.9791 1.59022 23.8828L2.42679 23.0462C2.5291 22.9439 2.69077 22.9491 2.78612 23.0444L8.45927 28.7176C8.5486 28.8189 8.55379 28.9806 8.45147 29.0829Z" fill="#2A2A2A"/>
<path d="M6.28624 29.8302L5.44366 30.6728C5.34736 30.7691 5.18563 30.7759 5.08433 30.6746L0.811588 26.4019C0.716241 26.3065 0.711052 26.1448 0.813366 26.0425L1.65595 25.1999C1.75225 25.1036 1.91397 25.0969 2.01528 25.1982L6.28802 29.4709C6.38932 29.5722 6.38855 29.7279 6.28624 29.8302Z" fill="#2A2A2A"/>
<path d="M10.5222 28.2402L9.69165 29.0707C9.58933 29.173 9.42164 29.1739 9.32034 29.0726L2.4196 22.1718C2.31829 22.0705 2.31912 21.9028 2.42144 21.8005L3.25198 20.97C3.3543 20.8677 3.52198 20.8668 3.62329 20.9681L10.53 27.8748C10.6313 27.9761 10.6245 28.1379 10.5222 28.2402Z" fill="#2A2A2A"/>
<path d="M24.6792 6.4912C24.5177 6.45008 24.3558 6.4928 24.2294 6.61919L19.3484 11.5241C19.24 11.6324 19.1552 11.8365 19.2202 12.0098C19.8822 13.7792 19.6745 15.8104 19.458 17.1949C19.3592 17.8062 19.2425 18.3996 19.1019 18.9693L19.0837 19.0233C19.0593 19.1072 19.0593 19.1072 18.9933 19.1375C18.8012 19.2223 18.5675 19.2654 18.3457 19.3084C18.2557 19.3268 18.1658 19.3452 18.0819 19.3576C17.4884 19.4863 16.9549 19.5788 16.4456 19.6472C15.4269 19.772 14.5105 19.7945 13.6246 19.703C13.3673 19.6744 13.1688 19.837 13.1376 20.0947C13.1064 20.3524 13.2666 20.645 13.5899 20.6794C14.4458 20.765 15.3502 20.7545 16.3508 20.6358C16.9321 20.567 17.5254 20.4742 18.1129 20.3516C18.4127 20.2902 18.7244 20.2168 19.0422 20.1374L19.1082 20.1191C19.3301 20.0641 19.5819 20.0029 19.7685 19.8164C19.8046 19.7802 19.8407 19.7322 19.8769 19.6841C19.9916 19.4979 20.0407 19.2581 20.0897 19.0422C20.102 18.9823 20.1082 18.9284 20.1264 18.8744C20.206 18.5326 20.2736 18.179 20.3412 17.8253C20.5199 16.8243 20.6142 15.9195 20.6364 15.0511C20.6603 13.8592 20.5335 12.8537 20.2623 11.9927L24.9207 7.31045C25.0471 7.18407 25.0898 7.02216 25.0487 6.86067C25.0017 6.68124 24.8587 6.53822 24.6792 6.4912Z" fill="#2A2A2A"/>
<path d="M29.0828 8.45162L29.9194 7.61505C30.0217 7.51274 30.0165 7.35107 29.9212 7.25572L24.248 1.58257C24.1467 1.48127 23.985 1.48805 23.8887 1.58435L23.0521 2.42092C22.9498 2.52323 22.955 2.6849 23.0504 2.78025L28.7235 8.4534C28.8189 8.54875 28.9805 8.55393 29.0828 8.45162Z" fill="#2A2A2A"/>
<path d="M29.8304 6.28601L30.673 5.44343C30.7693 5.34713 30.776 5.1854 30.6747 5.0841L26.402 0.811359C26.3066 0.716012 26.145 0.710823 26.0427 0.813137L25.2001 1.65572C25.1038 1.75201 25.097 1.91374 25.1983 2.01505L29.471 6.28779C29.5724 6.38909 29.7281 6.38832 29.8304 6.28601Z" fill="#2A2A2A"/>
<path d="M28.2405 10.5219L29.071 9.69136C29.1733 9.58905 29.1742 9.42136 29.0729 9.32005L22.1721 2.41931C22.0708 2.31801 21.9031 2.31884 21.8008 2.42115L20.9703 3.25169C20.8679 3.354 20.8671 3.52169 20.9684 3.623L27.8751 10.5297C27.9764 10.631 28.1382 10.6242 28.2405 10.5219Z" fill="#2A2A2A"/>
</g>
<defs>
<clipPath id="clip0_2721_2">
<rect width="32" height="32" fill="white"/>
</clipPath>
</defs>
</svg>
